<mxfile host="Electron" modified="2024-06-06T11:13:18.168Z" agent="Mozilla/5.0 (Windows NT 10.0; Win64; x64) AppleWebKit/537.36 (KHTML, like Gecko) draw.io/21.3.7 Chrome/112.0.5615.204 Electron/24.5.0 Safari/537.36" etag="55lz_aHyv95LjDmepED6" version="21.3.7" type="device">
  <diagram id="lZtMAotlkgFh4TRdy8GD" name="Seite-1">
    <mxGraphModel dx="675" dy="462" grid="0" gridSize="10" guides="1" tooltips="1" connect="1" arrows="1" fold="1" page="1" pageScale="1" pageWidth="827" pageHeight="1169" math="0" shadow="0">
      <root>
        <mxCell id="0" />
        <mxCell id="1" parent="0" />
        <mxCell id="0Lt53XmSsZHqnJwjP2_6-42" value="" style="endArrow=none;html=1;rounded=0;fontSize=19;strokeWidth=2;dashed=1;endFill=0;" parent="1" edge="1">
          <mxGeometry width="50" height="50" relative="1" as="geometry">
            <mxPoint x="366.5" y="428" as="sourcePoint" />
            <mxPoint x="366.47" y="518" as="targetPoint" />
          </mxGeometry>
        </mxCell>
        <mxCell id="0Lt53XmSsZHqnJwjP2_6-43" value="Q&lt;sub&gt;loss,heat&lt;/sub&gt;" style="edgeLabel;html=1;align=center;verticalAlign=middle;resizable=0;points=[];fontSize=19;" parent="0Lt53XmSsZHqnJwjP2_6-42" vertex="1" connectable="0">
          <mxGeometry x="-0.4466" y="-1" relative="1" as="geometry">
            <mxPoint x="51" y="27" as="offset" />
          </mxGeometry>
        </mxCell>
        <mxCell id="edbJ2biws5o5_GoP5meb-9" value="P&lt;sub&gt;loss,H2&lt;/sub&gt;" style="edgeLabel;html=1;align=center;verticalAlign=middle;resizable=0;points=[];fontSize=19;" parent="0Lt53XmSsZHqnJwjP2_6-42" vertex="1" connectable="0">
          <mxGeometry x="-0.4466" y="-1" relative="1" as="geometry">
            <mxPoint x="345" y="-53" as="offset" />
          </mxGeometry>
        </mxCell>
        <mxCell id="edbJ2biws5o5_GoP5meb-10" value="P&lt;sub&gt;losses&lt;/sub&gt;" style="edgeLabel;html=1;align=center;verticalAlign=middle;resizable=0;points=[];fontSize=19;" parent="0Lt53XmSsZHqnJwjP2_6-42" vertex="1" connectable="0">
          <mxGeometry x="-0.4466" y="-1" relative="1" as="geometry">
            <mxPoint x="341" y="48" as="offset" />
          </mxGeometry>
        </mxCell>
        <mxCell id="0Lt53XmSsZHqnJwjP2_6-31" value="&lt;font style=&quot;font-size: 19px;&quot;&gt;Hydrogen Electrolyser (HEL)&lt;/font&gt;" style="rounded=0;whiteSpace=wrap;html=1;strokeWidth=2;fillColor=#FFFFFF;" parent="1" vertex="1">
          <mxGeometry x="253.02999999999997" y="288" width="230" height="162" as="geometry" />
        </mxCell>
        <mxCell id="0Lt53XmSsZHqnJwjP2_6-34" value="" style="endArrow=classic;html=1;rounded=0;fontSize=19;entryX=-0.009;entryY=0.171;entryDx=0;entryDy=0;entryPerimeter=0;strokeWidth=2;" parent="1" edge="1">
          <mxGeometry width="50" height="50" relative="1" as="geometry">
            <mxPoint x="363.0199999999999" y="218" as="sourcePoint" />
            <mxPoint x="362.95" y="288" as="targetPoint" />
          </mxGeometry>
        </mxCell>
        <mxCell id="0Lt53XmSsZHqnJwjP2_6-35" value="P&lt;sub&gt;el&lt;/sub&gt;" style="edgeLabel;html=1;align=center;verticalAlign=middle;resizable=0;points=[];fontSize=19;" parent="0Lt53XmSsZHqnJwjP2_6-34" vertex="1" connectable="0">
          <mxGeometry x="-0.4466" y="-1" relative="1" as="geometry">
            <mxPoint x="-32" y="13" as="offset" />
          </mxGeometry>
        </mxCell>
        <mxCell id="0Lt53XmSsZHqnJwjP2_6-38" value="" style="endArrow=classic;html=1;rounded=0;fontSize=19;strokeWidth=2;" parent="1" edge="1">
          <mxGeometry width="50" height="50" relative="1" as="geometry">
            <mxPoint x="483.03" y="429.87999999999994" as="sourcePoint" />
            <mxPoint x="632" y="430.32" as="targetPoint" />
          </mxGeometry>
        </mxCell>
        <mxCell id="0Lt53XmSsZHqnJwjP2_6-39" value="m&lt;sub&gt;O2,out&lt;/sub&gt;" style="edgeLabel;html=1;align=center;verticalAlign=middle;resizable=0;points=[];fontSize=19;" parent="0Lt53XmSsZHqnJwjP2_6-38" vertex="1" connectable="0">
          <mxGeometry x="-0.4466" y="-1" relative="1" as="geometry">
            <mxPoint x="16" y="-17" as="offset" />
          </mxGeometry>
        </mxCell>
        <mxCell id="0Lt53XmSsZHqnJwjP2_6-47" value="E&lt;sub&gt;H2&lt;/sub&gt;" style="text;html=1;strokeColor=none;fillColor=none;align=center;verticalAlign=middle;whiteSpace=wrap;rounded=0;fontSize=19;" parent="1" vertex="1">
          <mxGeometry x="494" y="346" width="60" height="30" as="geometry" />
        </mxCell>
        <mxCell id="0Lt53XmSsZHqnJwjP2_6-49" value=".&lt;br&gt;" style="text;html=1;strokeColor=none;fillColor=none;align=center;verticalAlign=middle;whiteSpace=wrap;rounded=0;fontSize=19;" parent="1" vertex="1">
          <mxGeometry x="136" y="268" width="60" height="30" as="geometry" />
        </mxCell>
        <mxCell id="0Lt53XmSsZHqnJwjP2_6-46" value="Q&lt;sub&gt;heat,high&lt;/sub&gt;" style="endArrow=classic;html=1;rounded=0;strokeColor=#000000;fontSize=19;strokeWidth=2;" parent="1" edge="1">
          <mxGeometry x="0.2651" y="-19" width="50" height="50" relative="1" as="geometry">
            <mxPoint x="253.03" y="321" as="sourcePoint" />
            <mxPoint x="166.03" y="321" as="targetPoint" />
            <mxPoint as="offset" />
          </mxGeometry>
        </mxCell>
        <mxCell id="0Lt53XmSsZHqnJwjP2_6-52" value=".&lt;br&gt;" style="text;html=1;strokeColor=none;fillColor=none;align=center;verticalAlign=middle;whiteSpace=wrap;rounded=0;fontSize=19;" parent="1" vertex="1">
          <mxGeometry x="487" y="384" width="60" height="30" as="geometry" />
        </mxCell>
        <mxCell id="0Lt53XmSsZHqnJwjP2_6-55" value="" style="endArrow=classic;html=1;rounded=0;fontSize=19;strokeColor=#FF170F;strokeWidth=2;" parent="1" edge="1">
          <mxGeometry width="50" height="50" relative="1" as="geometry">
            <mxPoint x="253.03000000000003" y="356" as="sourcePoint" />
            <mxPoint x="113.07" y="357" as="targetPoint" />
          </mxGeometry>
        </mxCell>
        <mxCell id="0Lt53XmSsZHqnJwjP2_6-56" value="T&lt;sub&gt;heat,high&lt;/sub&gt;" style="edgeLabel;html=1;align=center;verticalAlign=middle;resizable=0;points=[];fontSize=19;labelBackgroundColor=none;" parent="0Lt53XmSsZHqnJwjP2_6-55" vertex="1" connectable="0">
          <mxGeometry x="-0.4466" y="-1" relative="1" as="geometry">
            <mxPoint x="-15" y="-14" as="offset" />
          </mxGeometry>
        </mxCell>
        <mxCell id="0Lt53XmSsZHqnJwjP2_6-66" value=".&lt;br&gt;" style="text;html=1;strokeColor=none;fillColor=none;align=center;verticalAlign=middle;whiteSpace=wrap;rounded=0;fontSize=19;" parent="1" vertex="1">
          <mxGeometry x="354" y="447" width="60" height="30" as="geometry" />
        </mxCell>
        <mxCell id="9B9aA9WujrgHKCgmpcFo-12" value="&lt;font style=&quot;font-size: 19px;&quot;&gt;&lt;span style=&quot;color: rgb(0, 0, 0); font-family: Helvetica; font-style: normal; font-variant-ligatures: normal; font-variant-caps: normal; font-weight: 400; letter-spacing: normal; orphans: 2; text-align: center; text-indent: 0px; text-transform: none; widows: 2; word-spacing: 0px; -webkit-text-stroke-width: 0px; background-color: rgb(255, 255, 255); text-decoration-thickness: initial; text-decoration-style: initial; text-decoration-color: initial; float: none; display: inline !important;&quot;&gt;m&lt;/span&gt;&lt;sub style=&quot;color: rgb(0, 0, 0); font-family: Helvetica; font-style: normal; font-variant-ligatures: normal; font-variant-caps: normal; font-weight: 400; letter-spacing: normal; orphans: 2; text-align: center; text-indent: 0px; text-transform: none; widows: 2; word-spacing: 0px; -webkit-text-stroke-width: 0px; text-decoration-thickness: initial; text-decoration-style: initial; text-decoration-color: initial;&quot;&gt;H2,out&lt;/sub&gt;&lt;/font&gt;" style="text;whiteSpace=wrap;html=1;fontSize=19;verticalAlign=middle;" parent="1" vertex="1">
          <mxGeometry x="704" y="292" width="95" height="50" as="geometry" />
        </mxCell>
        <mxCell id="9B9aA9WujrgHKCgmpcFo-14" value="&lt;font color=&quot;#000000&quot;&gt;H&lt;sub&gt;2&lt;/sub&gt;&lt;br&gt;processing&lt;/font&gt;" style="rounded=0;whiteSpace=wrap;html=1;fontSize=16;fontColor=#FF4A4A;" parent="1" vertex="1">
          <mxGeometry x="590" y="312" width="104" height="60" as="geometry" />
        </mxCell>
        <mxCell id="9B9aA9WujrgHKCgmpcFo-17" value="&lt;font style=&quot;font-size: 19px;&quot;&gt;E&lt;sub&gt;H2,out&lt;/sub&gt;&lt;/font&gt;" style="text;html=1;strokeColor=none;fillColor=none;align=center;verticalAlign=middle;whiteSpace=wrap;rounded=0;fontSize=19;" parent="1" vertex="1">
          <mxGeometry x="704" y="346" width="60" height="30" as="geometry" />
        </mxCell>
        <mxCell id="9B9aA9WujrgHKCgmpcFo-24" value=".&lt;br&gt;" style="text;html=1;strokeColor=none;fillColor=none;align=center;verticalAlign=middle;whiteSpace=wrap;rounded=0;fontSize=19;" parent="1" vertex="1">
          <mxGeometry x="483.03" y="327" width="60" height="30" as="geometry" />
        </mxCell>
        <mxCell id="9B9aA9WujrgHKCgmpcFo-27" value="" style="endArrow=classic;html=1;rounded=0;fontSize=19;strokeWidth=2;" parent="1" edge="1">
          <mxGeometry width="50" height="50" relative="1" as="geometry">
            <mxPoint x="694.9999999999998" y="338.7200000000001" as="sourcePoint" />
            <mxPoint x="810" y="339" as="targetPoint" />
          </mxGeometry>
        </mxCell>
        <mxCell id="9B9aA9WujrgHKCgmpcFo-29" value=".&lt;br&gt;" style="text;html=1;strokeColor=none;fillColor=none;align=center;verticalAlign=middle;whiteSpace=wrap;rounded=0;fontSize=19;" parent="1" vertex="1">
          <mxGeometry x="681" y="326" width="60" height="30" as="geometry" />
        </mxCell>
        <mxCell id="9B9aA9WujrgHKCgmpcFo-30" value="" style="endArrow=none;html=1;rounded=0;strokeColor=#000000;strokeWidth=2;fontSize=16;exitX=0.483;exitY=1.004;exitDx=0;exitDy=0;dashed=1;exitPerimeter=0;endFill=0;" parent="1" source="9B9aA9WujrgHKCgmpcFo-14" edge="1">
          <mxGeometry width="50" height="50" relative="1" as="geometry">
            <mxPoint x="527" y="207" as="sourcePoint" />
            <mxPoint x="640" y="520" as="targetPoint" />
          </mxGeometry>
        </mxCell>
        <mxCell id="9B9aA9WujrgHKCgmpcFo-32" value="" style="endArrow=classic;html=1;rounded=0;fontSize=19;strokeWidth=2;entryX=-0.019;entryY=0.487;entryDx=0;entryDy=0;entryPerimeter=0;" parent="1" target="9B9aA9WujrgHKCgmpcFo-14" edge="1">
          <mxGeometry width="50" height="50" relative="1" as="geometry">
            <mxPoint x="483.03" y="341.05999999999995" as="sourcePoint" />
            <mxPoint x="580" y="360" as="targetPoint" />
          </mxGeometry>
        </mxCell>
        <mxCell id="9B9aA9WujrgHKCgmpcFo-33" value="m&lt;sub&gt;H2&lt;/sub&gt;" style="edgeLabel;html=1;align=center;verticalAlign=middle;resizable=0;points=[];fontSize=19;" parent="9B9aA9WujrgHKCgmpcFo-32" vertex="1" connectable="0">
          <mxGeometry x="-0.4466" y="-1" relative="1" as="geometry">
            <mxPoint x="10" y="-21" as="offset" />
          </mxGeometry>
        </mxCell>
        <mxCell id="0Lt53XmSsZHqnJwjP2_6-51" value=".&lt;br&gt;" style="text;html=1;strokeColor=none;fillColor=none;align=center;verticalAlign=middle;whiteSpace=wrap;rounded=0;fontSize=19;" parent="1" vertex="1">
          <mxGeometry x="483.03" y="291" width="60" height="30" as="geometry" />
        </mxCell>
        <mxCell id="9B9aA9WujrgHKCgmpcFo-13" value=".&lt;br&gt;" style="text;html=1;strokeColor=none;fillColor=none;align=center;verticalAlign=middle;whiteSpace=wrap;rounded=0;fontSize=19;" parent="1" vertex="1">
          <mxGeometry x="685" y="287" width="60" height="30" as="geometry" />
        </mxCell>
        <mxCell id="edbJ2biws5o5_GoP5meb-2" value=".&lt;br&gt;" style="text;html=1;strokeColor=none;fillColor=none;align=center;verticalAlign=middle;whiteSpace=wrap;rounded=0;fontSize=19;" parent="1" vertex="1">
          <mxGeometry x="142" y="343" width="62" height="45" as="geometry" />
        </mxCell>
        <mxCell id="edbJ2biws5o5_GoP5meb-3" value="Q&lt;sub&gt;heat,low&lt;/sub&gt;" style="endArrow=classic;html=1;rounded=0;strokeColor=#000000;fontSize=19;strokeWidth=2;" parent="1" edge="1">
          <mxGeometry x="0.1731" y="-22" width="50" height="50" relative="1" as="geometry">
            <mxPoint x="253.02999999999997" y="407.5" as="sourcePoint" />
            <mxPoint x="166.03" y="407.5" as="targetPoint" />
            <mxPoint as="offset" />
          </mxGeometry>
        </mxCell>
        <mxCell id="edbJ2biws5o5_GoP5meb-4" value="" style="endArrow=classic;html=1;rounded=0;fontSize=19;strokeColor=#6c8ebf;strokeWidth=2;fillColor=#dae8fc;" parent="1" edge="1">
          <mxGeometry width="50" height="50" relative="1" as="geometry">
            <mxPoint x="253.03000000000003" y="442.5" as="sourcePoint" />
            <mxPoint x="113.07" y="443.5" as="targetPoint" />
          </mxGeometry>
        </mxCell>
        <mxCell id="edbJ2biws5o5_GoP5meb-5" value="T&lt;sub&gt;heat,low&lt;/sub&gt;" style="edgeLabel;html=1;align=center;verticalAlign=middle;resizable=0;points=[];fontSize=19;labelBackgroundColor=none;" parent="edbJ2biws5o5_GoP5meb-4" vertex="1" connectable="0">
          <mxGeometry x="-0.4466" y="-1" relative="1" as="geometry">
            <mxPoint x="-12" y="-15" as="offset" />
          </mxGeometry>
        </mxCell>
        <mxCell id="edbJ2biws5o5_GoP5meb-8" value="" style="endArrow=classic;dashed=1;html=1;strokeWidth=2;rounded=0;endFill=1;" parent="1" edge="1">
          <mxGeometry width="50" height="50" relative="1" as="geometry">
            <mxPoint x="370" y="520" as="sourcePoint" />
            <mxPoint x="680" y="520" as="targetPoint" />
          </mxGeometry>
        </mxCell>
      </root>
    </mxGraphModel>
  </diagram>
</mxfile>
